<?xml version="1.0" encoding="us-ascii" standalone="no"?><svg xmlns="http://www.w3.org/2000/svg" xmlns:xlink="http://www.w3.org/1999/xlink" contentStyleType="text/css" height="256px" preserveAspectRatio="none" style="width:358px;height:256px;background:#003153;" version="1.1" viewBox="0 0 358 256" width="358px" zoomAndPan="magnify"><defs/><g><rect fill="#003153" height="256" style="stroke:none;stroke-width:1.0;" width="358" x="0" y="0"/><!--class Actions--><g id="elem_Actions"><rect codeLine="3" fill="#003153" height="26.2969" id="Actions" rx="2.5" ry="2.5" style="stroke:#D9D3D0;stroke-width:1.0;" width="60" x="190" y="18.5659"/><text fill="#D9D3D0" font-family="Verdana" font-size="14" lengthAdjust="spacing" textLength="54" x="193" y="36.561">Actions</text></g><!--class Effects--><g id="elem_Effects"><rect codeLine="4" fill="#003153" height="26.2969" id="Effects" rx="2.5" ry="2.5" style="stroke:#D9D3D0;stroke-width:1.0;" width="58" x="244" y="121.5659"/><text fill="#D9D3D0" font-family="Verdana" font-size="14" lengthAdjust="spacing" textLength="52" x="247" y="139.561">Effects</text></g><!--class Reducers--><g id="elem_Reducers"><rect codeLine="6" fill="#003153" height="26.2969" id="Reducers" rx="2.5" ry="2.5" style="stroke:#D9D3D0;stroke-width:1.0;" width="72" x="12" y="18.5659"/><text fill="#D9D3D0" font-family="Verdana" font-size="14" lengthAdjust="spacing" textLength="66" x="15" y="36.561">Reducers</text></g><!--class State--><g id="elem_State"><rect codeLine="7" fill="#003153" height="26.2969" id="State" rx="2.5" ry="2.5" style="stroke:#D9D3D0;stroke-width:1.0;" width="46" x="17" y="121.5659"/><text fill="#D9D3D0" font-family="Verdana" font-size="14" lengthAdjust="spacing" textLength="40" x="20" y="139.561">State</text></g><!--class Selectors--><g id="elem_Selectors"><rect codeLine="8" fill="#003153" height="26.2969" id="Selectors" rx="2.5" ry="2.5" style="stroke:#D9D3D0;stroke-width:1.0;" width="74" x="19" y="224.5659"/><text fill="#D9D3D0" font-family="Verdana" font-size="14" lengthAdjust="spacing" textLength="68" x="22" y="242.561">Selectors</text></g><!--class Components--><g id="elem_Components"><rect codeLine="10" fill="#003153" height="26.2969" id="Components" rx="2.5" ry="2.5" style="stroke:#D9D3D0;stroke-width:1.0;" width="99" x="109.5" y="121.5659"/><text fill="#D9D3D0" font-family="Verdana" font-size="14" lengthAdjust="spacing" textLength="93" x="112.5" y="139.561">Components</text></g><!--class Services--><g id="elem_Services"><rect codeLine="11" fill="#003153" height="26.2969" id="Services" rx="2.5" ry="2.5" style="stroke:#D9D3D0;stroke-width:1.0;" width="66" x="202" y="224.5659"/><text fill="#D9D3D0" font-family="Verdana" font-size="14" lengthAdjust="spacing" textLength="60" x="205" y="242.561">Services</text></g><!--link Components to Selectors--><g id="link_Components_Selectors"><path codeLine="13" d="M149.172,147.8269 C139.09,160.1289 122.704,179.3795 107,194.5659 C97.332,203.915 85.8221,213.5106 76.1851,221.1657 " fill="none" id="Components-to-Selectors" style="stroke:#D9D3D0;stroke-width:1.0;stroke-dasharray:7.0,7.0;"/><polygon fill="#D9D3D0" points="72.1805,224.3213,81.7252,221.8927,76.1077,221.2267,76.7738,215.6091,72.1805,224.3213" style="stroke:#D9D3D0;stroke-width:1.0;"/><text fill="#D9D3D0" font-family="Verdana" font-size="13" lengthAdjust="spacing" textLength="52" x="124" y="190.6328">observe</text></g><!--reverse link State to Selectors--><g id="link_State_Selectors"><path codeLine="14" d="M42.5753,152.8689 C44.342,164.6329 46.7625,180.5464 49,194.5659 C50.6077,204.6397 52.5163,216.0574 53.9341,224.4428 " fill="none" id="State-backto-Selectors" style="stroke:#D9D3D0;stroke-width:1.0;stroke-dasharray:7.0,7.0;"/><polygon fill="#D9D3D0" points="41.8126,147.7769,39.1887,157.2698,42.5526,152.7219,47.1006,156.0858,41.8126,147.7769" style="stroke:#D9D3D0;stroke-width:1.0;"/><text fill="#D9D3D0" font-family="Verdana" font-size="13" lengthAdjust="spacing" textLength="52" x="50" y="190.6328">observe</text></g><!--reverse link Actions to Components--><g id="link_Actions_Components"><path codeLine="15" d="M194.672,47.7899 C185.167,54.7749 175.181,63.8919 169,74.5659 C160.566,89.1309 158.802,108.8889 158.643,121.4349 " fill="none" id="Actions-backto-Components" style="stroke:#D9D3D0;stroke-width:1.0;"/><polygon fill="#D9D3D0" points="198.99,44.7329,189.3337,46.671,194.9099,47.623,193.9578,53.1992,198.99,44.7329" style="stroke:#D9D3D0;stroke-width:1.0;"/><text fill="#D9D3D0" font-family="Verdana" font-size="13" lengthAdjust="spacing" textLength="54" x="170" y="87.6328">dispatch</text></g><!--reverse link Actions to Effects--><g id="link_Actions_Effects"><path codeLine="16" d="M254.937,44.0889 C269.057,50.6619 283.906,60.4729 292,74.5659 C300.575,89.4959 291.01,108.8109 282.629,121.1969 " fill="none" id="Actions-backto-Effects" style="stroke:#D9D3D0;stroke-width:1.0;"/><polygon fill="#D9D3D0" points="250.188,41.9819,256.7931,49.2876,254.7585,44.0093,260.0369,41.9748,250.188,41.9819" style="stroke:#D9D3D0;stroke-width:1.0;"/><text fill="#D9D3D0" font-family="Verdana" font-size="13" lengthAdjust="spacing" textLength="54" x="296" y="87.6328">dispatch</text></g><!--link Actions to Effects--><g id="link_Actions_Effects"><path codeLine="17" d="M222.851,44.8149 C226.006,57.1069 231.758,76.3499 240,91.5659 C244.993,100.7849 252.013,110.0529 258.295,117.5289 " fill="none" id="Actions-to-Effects" style="stroke:#D9D3D0;stroke-width:1.0;"/><polygon fill="#D9D3D0" points="261.691,121.4859,258.8639,112.0515,258.4342,117.6921,252.7937,117.2624,261.691,121.4859" style="stroke:#D9D3D0;stroke-width:1.0;"/><text fill="#D9D3D0" font-family="Verdana" font-size="13" lengthAdjust="spacing" textLength="42" x="241" y="87.6328">trigger</text></g><!--link Effects to Services--><g id="link_Effects_Services"><path codeLine="18" d="M268.34,147.9509 C261.58,165.9179 249.03,199.2749 241.405,219.5422 " fill="none" id="Effects-to-Services" style="stroke:#D9D3D0;stroke-width:1.0;"/><polygon fill="#D9D3D0" points="239.579,224.3955,246.4919,217.3804,241.3396,219.7158,239.0043,214.5634,239.579,224.3955" style="stroke:#D9D3D0;stroke-width:1.0;"/><text fill="#D9D3D0" font-family="Verdana" font-size="13" lengthAdjust="spacing" textLength="23" x="258" y="190.6328">use</text></g><!--link Reducers to State--><g id="link_Reducers_State"><path codeLine="19" d="M47.019,44.9509 C45.6019,62.8419 42.9761,95.9929 41.3689,116.2839 " fill="none" id="Reducers-to-State" style="stroke:#D9D3D0;stroke-width:1.0;"/><polygon fill="#D9D3D0" points="40.964,121.3959,45.6613,112.7394,41.3583,116.4115,37.6862,112.1085,40.964,121.3959" style="stroke:#D9D3D0;stroke-width:1.0;"/><text fill="#D9D3D0" font-family="Verdana" font-size="13" lengthAdjust="spacing" textLength="45" x="46" y="87.6328">update</text></g><!--reverse link Reducers to Actions--><g id="link_Reducers_Actions"><path codeLine="20" d="M89.313,31.5659 C120.242,31.5659 161.85,31.5659 189.731,31.5659 " fill="none" id="Reducers-backto-Actions" style="stroke:#D9D3D0;stroke-width:1.0;"/><polygon fill="#D9D3D0" points="84.0568,31.5659,93.0568,35.5659,89.0568,31.5659,93.0568,27.5659,84.0568,31.5659" style="stroke:#D9D3D0;stroke-width:1.0;"/><text fill="#D9D3D0" font-family="Verdana" font-size="13" lengthAdjust="spacing" textLength="42" x="116" y="24.6328">trigger</text></g><!--reverse link Selectors to Services--><g id="link_Selectors_Services"><path codeLine="21" d="M98.467,237.5659 C130.116,237.5659 172.726,237.5659 201.877,237.5659 " fill="none" id="Selectors-backto-Services" style="stroke:#D9D3D0;stroke-width:1.0;stroke-dasharray:7.0,7.0;"/><polygon fill="#D9D3D0" points="93.089,237.5659,102.089,241.5659,98.089,237.5659,102.089,233.5659,93.089,237.5659" style="stroke:#D9D3D0;stroke-width:1.0;"/><text fill="#D9D3D0" font-family="Verdana" font-size="13" lengthAdjust="spacing" textLength="52" x="121.5" y="230.6328">observe</text></g><!--SRC=[RP1HZeCm34J_VGhl0P83h52bgjeBR4y0OGgHWA3OxC-gTs-WfAHIy-UyyTYUB-qnWfjXmHpzf4Hkg4NuxDI7IVRgvtQ3Ko4D7L93_2TExyb-qIuEKOglgzQAiiQGsaFIt7V3InZdC67IFE6A-ESTXEX0REtfwELl3eqa6MZpvyhQZtHVdIjZYZb9q7gPQtNzcs8_xHCsvbHWZRxh42d_h3HldV0Ye1p5asrB9Z2tQnelLfaSRc5wt57PqZNVHBrlmIF6ParwAvoFRi03]--></g></svg>